<?xml version="1.0" encoding="UTF-8"?>
<svg id="Camada_1" data-name="Camada 1" xmlns="http://www.w3.org/2000/svg" viewBox="0 0 25 25">
  <path id="path2" d="M12.29159,1.41124c.36349-.20396.81103-.20396,1.17399,0,1.79604,1.00803,7.20077,4.04231,8.99735,5.05034.36349.20343.58726.5803.58726.98823v10.10014c0,.40792-.22377.7848-.58726.98876-1.79604,1.00803-7.20077,4.0423-8.99735,5.05034-.36349.20396-.81103.20396-1.17399,0-1.79604-1.00803-7.20077-4.0423-8.99735-5.05034-.36296-.20396-.58673-.5803-.58673-.98823V7.45034c0-.40792.22377-.7848.58726-.98876,1.79551-1.00803,7.20131-4.04231,8.99682-5.05034h0Z" fill="#252525" fill-rule="evenodd"/>
  <path id="path4" d="M2.87025,18.06976c-.1424-.19058-.16274-.37152-.16274-.6151V7.41233c0-.40578.22323-.78052.58566-.98287,1.78962-1.00214,7.17615-4.01875,8.96577-5.02143.36242-.20289.85332-.19861,1.21574.00428,1.78962,1.00214,7.15795,3.99305,8.94757,4.9952.14454.08137.25482.17934.35332.30835L2.87025,18.06976Z" fill="#303030" fill-rule="evenodd"/>
  <path id="path6" d="M12.87885,5.00547c4.13652,0,7.49467,3.35815,7.49467,7.49467s-3.35815,7.49467-7.49467,7.49467-7.49467-3.35815-7.49467-7.49467,3.35815-7.49467,7.49467-7.49467ZM12.87885,8.75281c2.06799,0,3.74734,1.67881,3.74734,3.74734,0,2.06799-1.67934,3.74734-3.74734,3.74734s-3.74734-1.67934-3.74734-3.74734c0-2.06853,1.67881-3.74734,3.74734-3.74734Z" fill="#fff" fill-rule="evenodd"/>
  <path id="path8" d="M22.7745,6.72122c.27623.25857.27088.64829.27088.95504,0,2.03159-.01713,7.80998.00482,9.84158.00214.21199-.06799.43523-.17291.60332l-10.21631-5.621,10.11353-5.77893Z" fill="#3d3d3d" fill-rule="evenodd"/>
</svg>