<?xml version="1.0" encoding="UTF-8"?>
<svg id="Camada_1" data-name="Camada 1" xmlns="http://www.w3.org/2000/svg" viewBox="0 0 25 25">
  <path d="M12.79748,12.50292c0-2.0701,1.67821-3.74831,3.74831-3.74831s3.74831,1.67821,3.74831,3.74831-1.67821,3.74831-3.74831,3.74831-3.74831-1.67821-3.74831-3.74831Z" fill="#3d3d3d" fill-rule="evenodd"/>
  <path d="M5.30085,19.99955c0-2.0701,1.67818-3.74831,3.74831-3.74831h3.74831v3.74831c0,2.0701-1.67821,3.74831-3.74831,3.74831s-3.74831-1.67821-3.74831-3.74831Z" fill="#363636" fill-rule="evenodd"/>
  <path d="M12.79748,1.25798v7.49663h3.74831c2.0701,0,3.74831-1.67821,3.74831-3.74831s-1.67821-3.74831-3.74831-3.74831h-3.74831Z" fill="#252525" fill-rule="evenodd"/>
  <path d="M5.30085,5.0063c0,2.0701,1.67818,3.74831,3.74831,3.74831h3.74831V1.25798h-3.74831c-2.07014,0-3.74831,1.67818-3.74831,3.74831Z" fill="#0f0f0f" fill-rule="evenodd"/>
  <path d="M5.30085,12.50292c0,2.0701,1.67818,3.74831,3.74831,3.74831h3.74831v-7.49663h-3.74831c-2.07014,0-3.74831,1.67821-3.74831,3.74831Z" fill="#1c1c1c" fill-rule="evenodd"/>
</svg>