<?xml version="1.0" encoding="UTF-8"?>
<svg id="Camada_1" data-name="Camada 1" xmlns="http://www.w3.org/2000/svg" viewBox="0 0 25 25">
  <defs>
    <style>
      .cls-1 {
        fill: #252525;
      }

      .cls-2 {
        fill: #fff;
      }
    </style>
  </defs>
  <path class="cls-1" d="M1.73,13.63c-.63-.63-.63-1.64,0-2.27L11.37,1.73c.63-.63,1.64-.63,2.27,0l9.64,9.64c.63.63.63,1.64,0,2.27l-9.64,9.64c-.63.63-1.64.63-2.27,0L1.73,13.63Z"/>
  <path class="cls-2" d="M9.41,3.72l-.98.98,2.52,2.52c-.1.22-.16.46-.16.72,0,.73.46,1.35,1.1,1.6v6.17c-.65.24-1.1.87-1.1,1.6,0,.94.76,1.71,1.71,1.71s1.71-.76,1.71-1.71c0-.66-.38-1.24-.93-1.52v-6.24l2.41,2.41c-.1.21-.15.45-.15.7,0,.94.76,1.71,1.71,1.71s1.71-.76,1.71-1.71-.76-1.71-1.71-1.71c-.18,0-.36.03-.52.08l-2.59-2.59c.05-.16.08-.33.08-.51,0-.94-.76-1.71-1.71-1.71-.18,0-.35.03-.51.08l-2.59-2.59Z"/>
</svg>