<?xml version="1.0" encoding="UTF-8"?>
<svg id="Camada_1" data-name="Camada 1" xmlns="http://www.w3.org/2000/svg" viewBox="0 0 25 25">
  <defs>
    <style>
      .cls-1 {
        fill: #252525;
      }

      .cls-2 {
        fill: #4d4d4d;
      }
    </style>
  </defs>
  <path class="cls-1" d="M2.75,7.8c4.65,2.2,8.08,3.77,8.83,4.06.19.08.54.2.99.21,0,0,.52.01,1.06-.19.76-.28,4.33-2.02,9.16-4.51.01,0,.22-.15.22-.39,0-.19-.12-.36-.3-.43L13.66,2.14c-.15-.1-.51-.3-1.01-.31-.48,0-.84.17-.96.23-.75.37-4.25,2.02-9.05,4.3-.26.13-.44.39-.44.68,0,.34.22.65.56.76Z"/>
  <path class="cls-1" d="M22.66,16.86c-.85-.44-1.7-.88-2.55-1.32-3.46,1.69-6.01,2.9-6.66,3.2-.14.06-.44.2-.84.21-.45.02-.81-.11-.98-.18-.68-.27-3.27-1.43-6.77-3.07-.71.35-1.42.69-2.13,1.04-.07.03-.31.14-.44.41-.15.31-.07.66.08.86.11.16.25.24.33.27,4.84,2.2,8.37,3.8,8.96,4.08.1.05.42.2.85.21.32,0,.57-.07.75-.14.6-.23,4.27-1.9,9.28-4.23.02,0,.41-.19.46-.61.04-.29-.09-.57-.33-.74Z"/>
  <path class="cls-2" d="M22.66,11.91c-.85-.44-1.7-.88-2.55-1.32-3.46,1.69-6.01,2.9-6.66,3.2-.14.06-.44.2-.84.21-.45.02-.81-.11-.98-.18-.68-.27-3.27-1.43-6.77-3.07-.71.35-1.42.69-2.13,1.04-.07.03-.31.14-.44.41-.15.31-.07.66.08.86.11.16.25.24.33.27,4.84,2.2,8.37,3.8,8.96,4.08.1.05.42.2.85.21.31,0,.57-.07.75-.14.6-.23,4.26-1.89,9.26-4.22.26-.1.45-.34.49-.61.04-.29-.09-.58-.33-.74Z"/>
</svg>