<?xml version="1.0" encoding="UTF-8"?>
<svg id="Camada_1" data-name="Camada 1" xmlns="http://www.w3.org/2000/svg" viewBox="0 0 25 25">
  <g id="_2069a460dcf28295e231f3111e03585e" data-name="2069a460dcf28295e231f3111e03585e">
    <path d="M11.25009,10.82758l.84427,2.644h-2.75559l.8283-2.644c.19122-.63712.35042-1.38569.50961-2.00688h.03186c.15932.62124.33444,1.35384.54155,2.00688ZM23.742,5.00533v14.98934c0,2.06105-1.6863,3.74735-3.74735,3.74735H5.00535c-2.06105-.00004-3.74735-1.68634-3.74735-3.74739V5.00533c0-2.06105,1.6863-3.74735,3.74735-3.74735h14.98934c2.061,0,3.7473,1.6863,3.7473,3.74735ZM15.50282,17.99492l-3.48827-10.73498h-2.50052l-3.44031,10.73498h2.02281l.92387-3.04216h3.40846l.97161,3.04216h2.10236ZM18.81488,10.23825h-1.97507v7.75667h1.97507v-7.75667ZM18.92629,8.07217c-.01593-.60526-.42997-1.06709-1.09899-1.06709-.65305,0-1.09894.46182-1.09894,1.06709,0,.58938.42997,1.0512,1.08302,1.0512.6849-.00004,1.11492-.46187,1.11492-1.0512Z" fill="#252525"/>
  </g>
</svg>