<?xml version="1.0" encoding="UTF-8"?>
<svg id="Camada_1" data-name="Camada 1" xmlns="http://www.w3.org/2000/svg" viewBox="0 0 25 25">
  <g id="Page-1">
    <g id="Dribbble-Light-Preview">
      <g id="icons">
        <path id="javascript-_155_" data-name="javascript-[#155]" d="M18.48975,21.97941c-1.96173,0-3.22985-.93537-3.84815-2.15838h0l1.72003-.9963c.45307.73995,1.04101,1.28284,2.08314,1.28284.87465,0,1.43335-.43749,1.43335-1.04131,0-.90792-1.21189-1.26363-2.06739-1.62976-1.5244-.64883-2.53621-1.46399-2.53621-3.18487,0-1.5842,1.2074-2.79129,3.09495-2.79129,1.3423,0,2.30909.46769,3.00273,1.6896l-1.64472,1.05668c-.36198-.64883-.75433-.90518-1.35801-.90518-.61943,0-1.01177.39248-1.01177.90518,0,.63401.39235.89036,1.29845,1.28284,1.89877.81351,3.33548,1.45356,3.33548,3.54662,0,1.90203-1.49404,2.94334-3.50188,2.94334h0ZM13.6242,18.79454c0,2.18857-1.34792,3.34571-3.21973,3.34571-1.6908,0-2.7037-.64664-3.20172-1.77084h-.02923l1.7189-1.2016c.33165.5879.63068,1.00508,1.35468,1.00508.69477,0,1.1287-.35186,1.1287-1.40745v-7.38965h2.2484v7.41874ZM1.25798,23.74202h22.48404V1.25798H1.25798v22.48404Z" fill="#252525" fill-rule="evenodd"/>
      </g>
    </g>
  </g>
</svg>