<?xml version="1.0" encoding="UTF-8"?>
<svg id="Camada_1" data-name="Camada 1" xmlns="http://www.w3.org/2000/svg" viewBox="0 0 25 25">
  <path d="M10.21121,4.48929h-2.28877c-1.26409,0-2.28877,1.02468-2.28877,2.28877v2.79047c0,1.05032-.71478,1.96571-1.73363,2.22045l-1.73375.43349c-.28884.07221-.28884.48282,0,.55503l1.73375.43349c1.01885.25474,1.73363,1.17014,1.73363,2.2204v5.0793h4.57755" fill="none" stroke="#252525" stroke-miterlimit="133.33333" stroke-width="2"/>
  <path d="M14.78876,20.51071h2.28877c1.26406,0,2.28877-1.02472,2.28877-2.28877v-2.79053c0-1.05026.71477-1.96566,1.73367-2.2204l1.73367-.43349c.28895-.07221.28895-.48282,0-.55503l-1.73367-.43349c-1.01889-.25474-1.73367-1.17014-1.73367-2.22045v-5.07925h-4.57755" fill="none" stroke="#252525" stroke-miterlimit="133.33333" stroke-width="2"/>
</svg>