<?xml version="1.0" encoding="UTF-8"?>
<svg id="Camada_1" data-name="Camada 1" xmlns="http://www.w3.org/2000/svg" viewBox="0 0 25 25">
  <circle cx="12.5" cy="12.5" r="11.18972" fill="#252525"/>
  <path d="M15.49106,11.13276c-.70679-3.11935-2.37716-4.145-2.55702-4.53686-.19669-.27646-.39601-.7682-.39601-.7682-.00328-.0083-.00852-.02295-.01464-.03715-.02032.27646-.03082.38312-.2922.66199-.40475.31646-2.48141,2.05895-2.65035,5.60294-.15757,3.30534,2.38765,5.2749,2.73186,5.52601l.03912.02776v-.0024c.00219.01661.10927.78678.18446,1.60284h.26969c.06328-.57685.15812-1.1498.28411-1.71627l.02185-.01421c.15397-.1104.30077-.23048.4395-.35951l.01573-.01421c.7317-.67597,2.04715-2.23947,2.03426-4.73224-.00272-.41582-.03964-.83071-.11037-1.24049h0ZM12.50765,15.71529s0-4.63586.15298-4.63499c.11933,0,.27384,5.97972.27384,5.97972-.21243-.02557-.42683-.98413-.42683-1.34473Z" fill="#fff"/>
</svg>