<?xml version="1.0" encoding="UTF-8"?>
<svg id="Camada_1" data-name="Camada 1" xmlns="http://www.w3.org/2000/svg" viewBox="0 0 25 25">
  <path d="M11.41282,1.40122c.32739-.19098.73224-.19098,1.05963,0l8.71235,5.08219c.32302.18843.52168.53427.52168.90825v10.16436c0,.37405-.19866.71978-.52168.9082l-8.71235,5.08218c-.32739.19109-.73224.19109-1.05963,0l-2.17808-1.27048c-.50161-.29259-.67104-.93652-.37844-1.43815.29261-.50149.93645-.67099,1.43807-.3784l1.64827.96148,7.66086-4.46881V7.9956l-7.66086-4.46881-7.66083,4.46881v8.95644l1.56573.91339c.48253.15478,1.07856.19263,1.49866.00701.19489-.08608.37089-.22628.51021-.47667.14662-.26357.28084-.70225.28084-1.41698v-7.3604c0-.58071.47077-1.05149,1.05149-1.05149s1.05149.47077,1.05149,1.05149v7.3604c0,.96765-.1808,1.78276-.54611,2.43931-.37259.66973-.90541,1.11612-1.49809,1.37801-1.13042.49939-2.37873.2947-3.14314.02005-.06047-.02173-.1188-.04893-.17429-.08131l-2.17808-1.27061c-.32304-.18843-.52168-.53416-.52168-.9082V7.39165c0-.37398.19863-.71982.52168-.90825L11.41282,1.40122ZM12.33837,8.66497c.55636-.66232,1.4253-1.09807,2.60439-1.09807,1.09425,0,1.92772.37511,2.49174.97177.39886.42204.38022,1.08753-.04192,1.48644-.422.39892-1.08752.38018-1.48638-.04186-.12281-.12989-.38022-.31337-.96344-.31337-.62021,0-.87579.20683-.99413.34772-.15276.18186-.20344.41193-.20344.52852s.05068.34665.20344.52852c.11834.14089.37392.34772.99413.34772.10375,0,.20399.01504.29876.04307.86853.12518,1.5304.5147,1.98422,1.055.52196.62136.69622,1.35516.69622,1.88114s-.17427,1.25982-.69622,1.88118c-.55631.6623-1.42525,1.09803-2.60431,1.09803-1.09426,0-1.92779-.37517-2.49178-.97171-.39891-.42214-.38016-1.08766.04188-1.48649.42202-.39892,1.08752-.38016,1.48644.04186.12277.12989.38023.31337.96347.31337.62022,0,.8758-.20683.99413-.34772.15268-.18186.20343-.41193.20343-.52852s-.05075-.34665-.20343-.52852c-.11833-.14089-.37391-.34772-.99413-.34772-.1038,0-.2041-.01504-.2988-.04307-.86854-.12518-1.5304-.5147-1.98427-1.055-.52193-.62136-.69615-1.35515-.69615-1.88114s.17422-1.25978.69615-1.88114Z" fill="#252525"/>
</svg>