<?xml version="1.0" encoding="UTF-8"?>
<svg id="Camada_1" data-name="Camada 1" xmlns="http://www.w3.org/2000/svg" viewBox="0 0 25 25">
  <g id="_2069a460dcf28295e231f3111e037552" data-name="2069a460dcf28295e231f3111e037552">
    <path d="M19.99463,1.25798H5.00533c-2.06105,0-3.74735,1.6863-3.74735,3.74735v14.98934c0,2.06105,1.6863,3.74735,3.74735,3.74735h14.98934c2.06105,0,3.74735-1.6863,3.74735-3.74735V5.00533c-.00004-2.06105-1.68634-3.74735-3.74739-3.74735ZM12.03045,12.69903c-.78038.78038-2.00688,1.14686-3.39253,1.14686-.36634,0-.70079-.01606-.95568-.06384v4.04558h-1.943V7.23595c.70079-.12738,1.6724-.22304,2.9942-.22304,1.43361,0,2.48481.30263,3.16972.87608.63712.52567,1.05116,1.36976,1.05116,2.37318-.00004,1.01939-.31856,1.86344-.92387,2.43685ZM16.10714,17.98704c-.93975,0-1.78385-.22304-2.35726-.54164l.38223-1.4175c.44594.27078,1.29017.55752,1.99096.55752.85998,0,1.24238-.35042,1.24238-.86016,0-.52549-.31852-.79636-1.27424-1.1308-1.5132-.52567-2.1501-1.35384-2.13422-2.26173,0-1.36976,1.1308-2.43685,2.93058-2.43685.86016,0,1.60873.22304,2.05458.46182l-.38223,1.38569c-.33449-.19105-.95572-.44594-1.64054-.44594-.70083,0-1.08306.33449-1.08306.81224,0,.49386.36634.73282,1.35388,1.08319,1.40158.50961,2.05462,1.22632,2.07055,2.37323-.00004,1.40158-1.09894,2.42092-3.15361,2.42092ZM10.99518,10.34178c0,1.25831-.89201,1.97503-2.35726,1.97503-.39816,0-.71672-.01593-.95568-.0796v-3.63149c.20715-.04774.58938-.09552,1.13098-.09552,1.35384,0,2.18196.63712,2.18196,1.83159Z" fill="#252525"/>
  </g>
</svg>