<?xml version="1.0" encoding="UTF-8"?>
<svg id="Camada_1" data-name="Camada 1" xmlns="http://www.w3.org/2000/svg" viewBox="0 0 25 25">
  <defs>
    <style>
      .cls-1 {
        fill: #3d3d3d;
      }

      .cls-1, .cls-2 {
        fill-rule: evenodd;
      }

      .cls-2 {
        fill: #252525;
      }
    </style>
  </defs>
  <path class="cls-2" d="M10.4,1.26c-1.76,0-3.19,1.38-3.19,3.09v2.14h5.53v.59h-7.99c-1.76,0-3.19,1.38-3.19,3.09v4.64c0,1.71,1.43,3.09,3.19,3.09h1.84v-2.62c0-1.71,1.43-3.09,3.19-3.09h5.9c1.49,0,2.7-1.17,2.7-2.62v-5.23c0-1.71-1.43-3.09-3.19-3.09h-4.79ZM9.66,5.06c.61,0,1.11-.48,1.11-1.07s-.5-1.07-1.11-1.07-1.11.48-1.11,1.07.5,1.07,1.11,1.07Z"/>
  <path class="cls-1" d="M15.19,23.74c1.76,0,3.19-1.38,3.19-3.09v-2.14h-5.53v-.59h7.99c1.76,0,3.19-1.38,3.19-3.09v-4.64c0-1.71-1.43-3.09-3.19-3.09h-1.84v2.62c0,1.71-1.43,3.09-3.19,3.09h-5.9c-1.49,0-2.7,1.17-2.7,2.62v5.23c0,1.71,1.43,3.09,3.19,3.09h4.79ZM15.93,19.94c-.61,0-1.11.48-1.11,1.07s.5,1.07,1.11,1.07,1.11-.48,1.11-1.07-.5-1.07-1.11-1.07Z"/>
</svg>