<?xml version="1.0" encoding="UTF-8"?>
<svg id="Camada_1" data-name="Camada 1" xmlns="http://www.w3.org/2000/svg" viewBox="0 0 25 25">
  <path d="M7.65269,3.83799c-.38614.22294-.79249.83772-.83963,2.17875-.0224.63699-.55694,1.13522-1.19392,1.11281-.63699-.0224-1.13522-.55693-1.11283-1.19392.05781-1.64404.57772-3.27987,1.9923-4.09657,1.4186-.81902,3.10056-.4471,4.55691.32985.56236.30002.77504.99911.47502,1.56146-.30001.56236-.99911.77504-1.56146.47504-1.19015-.63493-1.9291-.59103-2.3164-.36741ZM13.84087,5.83977c.49082-.40664,1.21834-.33839,1.62498.15243.85308,1.02964,1.6714,2.20376,2.41417,3.49037,1.60079,2.77246,2.58776,5.61295,2.85381,7.99551.1328,1.18932.09217,2.32109-.18558,3.29175-.2799.97805-.82509,1.8633-1.73943,2.3911-1.10623.63875-2.38356.54811-3.55266.12249-1.17325-.42716-2.38078-1.2361-3.53192-2.28677-.47076-.42978-.50403-1.15978-.07432-1.63049.4297-.47071,1.15967-.5041,1.63043-.07432,1.01424.92573,1.9674,1.532,2.76546,1.82268.80232.29206,1.30704.22189,1.60894.04755.25297-.14603.50749-.44363.67445-1.02729.16911-.59089.22251-1.39998.11079-2.40064-.22312-1.99749-1.07884-4.53405-2.55883-7.09748-.68072-1.17904-1.42566-2.24604-2.19272-3.17191-.40662-.49082-.33838-1.21836.15245-1.62498Z" fill="#252525"/>
  <path d="M22.50204,12.81462c0-.44588-.3293-1.10518-1.46707-1.81652-.54042-.33788-.70461-1.04992-.36669-1.59037s1.04991-.70465,1.59032-.36677c1.3949.87209,2.5516,2.14025,2.5516,3.77366,0,1.63806-1.16301,2.90864-2.56406,3.78143-.54103.33699-1.25287.17173-1.58986-.36931-.33699-.54103-.17157-1.25276.36931-1.58979,1.145-.71322,1.47646-1.37513,1.47646-1.82234ZM17.67429,17.17279c.10679.62844-.31607,1.2244-.9445,1.33119-1.31813.22389-2.74414.34546-4.22979.34546-3.20136,0-6.15483-.56535-8.35115-1.52631-1.09644-.47964-2.05622-1.08068-2.758-1.80652-.70715-.73144-1.20106-1.64624-1.20106-2.70198,0-1.27731.7172-2.33829,1.67031-3.13789.95656-.80249,2.26082-1.4438,3.74638-1.91534.60752-.19282,1.25632.14334,1.44916.75085.19282.60751-.14334,1.25632-.75085,1.44916-1.30888.41545-2.31053.93778-2.96122,1.48366-.65416.54879-.84562,1.02092-.84562,1.36957,0,.29204.13043.66126.55234,1.09767.42729.44197,1.10129.89271,2.02371,1.29626,1.84141.80553,4.46599,1.33272,7.42599,1.33272,1.36143,0,2.65796-.11156,3.84325-.31299.62844-.10664,1.2244.31622,1.33104.9445Z" fill="#252525"/>
  <path d="M7.68659,21.16206c.38614.22297,1.12174.26744,2.30667-.36223.56285-.29914,1.2616-.08525,1.56069.47748.29911.56288.08529,1.26164-.47756,1.56078-1.45268.77185-3.1293,1.13962-4.54388.32284-1.41858-.81894-1.93747-2.46158-1.99279-4.1113-.02136-.63705.47773-1.1707,1.11475-1.19209.63702-.02139,1.17076.47764,1.19212,1.11469.04521,1.34827.45271,1.96625.84,2.18983ZM6.32609,14.80203c-.59757-.22175-.90223-.88593-.68048-1.4835.46517-1.25356,1.0728-2.54935,1.81563-3.83595,1.60068-2.77246,3.56708-5.04752,5.4974-6.46915.96366-.70971,1.96402-1.24041,2.94359-1.48521.98697-.24668,2.02626-.21703,2.94045.31085,1.10623.63865,1.66649,1.79026,1.88238,3.01548.21666,1.22965.12002,2.67981-.2145,4.20214-.1368.62253-.75231,1.01633-1.37474.87958-.62259-.13677-1.01636-.75229-.87956-1.37483.29452-1.34124.34299-2.46986.19573-3.30632-.14818-.84091-.46148-1.24278-.76339-1.4171-.25282-.14603-.63782-.21768-1.22671-.07049-.59643.14906-1.32378.5074-2.13448,1.10444-1.61838,1.1919-3.38723,3.20127-4.86722,5.76472-.68072,1.17902-1.2323,2.35766-1.6506,3.4849-.22175.59755-.88593.90221-1.48349.68048Z" fill="#252525"/>
  <path d="M14.74546,12.60013c0,1.15525-.93653,2.09178-2.09178,2.09178s-2.09177-.93653-2.09177-2.09178.93651-2.09177,2.09177-2.09177,2.09178.93651,2.09178,2.09177Z" fill="#252525"/>
</svg>