<?xml version="1.0" encoding="UTF-8"?>
<svg id="Camada_1" data-name="Camada 1" xmlns="http://www.w3.org/2000/svg" viewBox="0 0 25 25">
  <path d="M19.93517,5.63201c-.01554-.11313-.11458-.17566-.19644-.18252-.08168-.00687-1.81079-.135-1.81079-.135,0,0-1.20087-1.19219-1.33261-1.32412-.13192-.13192-.38945-.0918-.48938-.06235-.01482.00434-.2624.08078-.67209.20746-.40119-1.15424-1.10906-2.21506-2.35457-2.21506-.03434,0-.06976.00145-.10518.00343-.35421-.46842-.79299-.67191-1.17195-.67191-2.90124,0-4.28734,3.62682-4.72197,5.46996-1.12732.34933-1.92826.59763-2.03054.6298-.62926.19734-.64914.21722-.73173.81016-.06235.4489-1.70887,13.18226-1.70887,13.18226l12.83004,2.40391,6.95184-1.50393s-2.44041-16.49897-2.45577-16.6121h0ZM14.72472,4.35488c-.32222.09976-.68853.21307-1.08557.33595.00036-.07644.00072-.1518.00072-.23403,0-.71745-.09958-1.29502-.25933-1.75296.64173.0806,1.06912.8107,1.34418,1.65104h0ZM12.58449,2.84607c.17837.4471.29439,1.08864.29439,1.95446,0,.04428-.00036.08476-.00072.12578-.70606.21867-1.47321.45613-2.24216.69432.43173-1.66622,1.24099-2.47095,1.9485-2.77456h0ZM11.72246,2.03013c.12524,0,.25138.04247.3721.1256-.92979.43752-1.92645,1.53953-2.34734,3.74013-.61516.19048-1.21641.37662-1.7723.54884.493-1.6785,1.66369-4.41457,3.74754-4.41457h0Z" fill="#252525"/>
  <path d="M19.73873,5.44949c-.08168-.00687-1.81079-.135-1.81079-.135,0,0-1.20087-1.19219-1.33261-1.32412-.04934-.04916-.11584-.07428-.18542-.08512l-.97009,19.84261,6.95112-1.50375s-2.44041-16.49897-2.45577-16.6121c-.01554-.11313-.11458-.17566-.19644-.18252" fill="#0f0f0f"/>
  <path d="M13.07929,9.29064l-.85714,2.54974s-.75106-.40083-1.67164-.40083c-1.3496,0-1.41755.84702-1.41755,1.06045,0,1.16454,3.03569,1.61074,3.03569,4.33849,0,2.14602-1.36116,3.52797-3.19653,3.52797-2.2024,0-3.32864-1.37074-3.32864-1.37074l.58968-1.94832s1.15768.99395,2.13464.99395c.63829,0,.89799-.50258.89799-.86979,0-1.51911-2.49047-1.58688-2.49047-4.08295,0-2.10084,1.50791-4.13391,4.55173-4.13391,1.17286,0,1.75224.33595,1.75224.33595" fill="#fff"/>
</svg>