<?xml version="1.0" encoding="UTF-8"?>
<svg id="Camada_1" data-name="Camada 1" xmlns="http://www.w3.org/2000/svg" viewBox="0 0 25 25">
  <path d="M19.71892,10.96853c.3953-.19769.8083-.43615,1.21259-.71692v2.24839c0,2.32829-3.77493,4.21576-8.43151,4.21576s-8.43151-1.88746-8.43151-4.21576v-2.24839c.40432.28077.81727.51923,1.21263.71692,1.99269.99634,4.54887,1.53147,7.21888,1.53147s5.22613-.53513,7.21892-1.53147Z" fill="#252525"/>
  <path d="M4.06849,17.27786v2.2484c0,2.32836,3.77491,4.21576,8.43151,4.21576s8.43151-1.88739,8.43151-4.21576v-2.2484c-.40429.28077-.81729.51924-1.21259.71696-1.99279.99632-4.54891,1.53144-7.21892,1.53144s-5.22619-.53512-7.21888-1.53144c-.39537-.19772-.80832-.43619-1.21263-.71696Z" fill="#252525"/>
  <path d="M12.5,1.25798c4.65658,0,8.43151,1.88746,8.43151,4.21576s-3.77493,4.21576-8.43151,4.21576-8.43151-1.88746-8.43151-4.21576S7.8434,1.25798,12.5,1.25798Z" fill="#252525"/>
</svg>