<?xml version="1.0" encoding="UTF-8"?>
<svg id="Camada_1" data-name="Camada 1" xmlns="http://www.w3.org/2000/svg" viewBox="0 0 25 25">
  <rect x=".17412" y="-27.65413" width="27.89674" height="27.89674" fill="none"/>
  <g>
    <path d="M12.5,4.81664c-1.64154,0-3.05282.42552-4.16061,1.33747-1.09982.90539-1.8193,2.22344-2.21841,3.86628-.08712.35854.10285.72603.45288.87615.35003.15012.76174.04066.98156-.26096.5066-.69507,1.01242-1.11272,1.49844-1.32705.47068-.20757.97804-.24963,1.55917-.10013.58646.15087,1.04044.59272,1.75317,1.3372l.02302.02406c.53726.56124,1.19265,1.2459,2.08906,1.7771.93017.5512,2.08768.92156,3.62175.92156,1.64143,0,3.05278-.42553,4.16061-1.33747,1.09967-.90539,1.81919-2.22344,2.21838-3.86628.08704-.35854-.10288-.72603-.45296-.87615-.34992-.15012-.76175-.04068-.98159.26094-.50656.69508-1.01231,1.11272-1.49839,1.32707-.47072.20757-.97807.24963-1.55919.10013-.5864-.15087-1.04047-.59273-1.75311-1.33721l-.02304-.02406c-.53728-.56124-1.19263-1.2459-2.08907-1.77708-.93015-.5512-2.08765-.92156-3.62167-.92156Z" fill="#252525"/>
    <path d="M6.90004,11.73165c-1.64154,0-3.05282.42552-4.16061,1.33747-1.09981.90539-1.81929,2.22343-2.21842,3.86633-.08711.35851.10285.72592.45288.87606.35003.15013.76174.04072.98157-.26093.5066-.69504,1.01242-1.1127,1.49843-1.32704.47068-.20757.97802-.24963,1.55917-.10013.58646.15087,1.04044.59276,1.75317,1.33727l.02302.02397c.53724.56119,1.19266,1.24593,2.08905,1.77716.93017.5512,2.08765.92154,3.62168.92154,1.64152,0,3.05281-.4255,4.16067-1.33752,1.09967-.90541,1.81919-2.22341,2.21838-3.86626.08704-.35855-.10288-.72603-.45296-.87616-.34992-.15012-.76175-.04066-.98159.26096-.50656.69508-1.01234,1.11272-1.49837,1.32705-.47067.20757-.97802.24965-1.55917.10014-.58644-.15087-1.04042-.59274-1.75315-1.33721l-.02304-.02406c-.53724-.56124-1.19265-1.2459-2.08906-1.7771-.93015-.55119-2.08765-.92154-3.62167-.92154Z" fill="#252525"/>
  </g>
</svg>