<?xml version="1.0" encoding="UTF-8"?>
<svg id="Camada_1" data-name="Camada 1" xmlns="http://www.w3.org/2000/svg" viewBox="0 0 25 25">
  <rect x="-.93886" y="-.93886" width="26.87772" height="26.87772" fill="none"/>
  <path d="M1.30095,12.5c.00104-1.57334.32901-3.12931.96312-4.56921l5.35315,14.64836c-3.86308-1.87156-6.31649-5.78658-6.31626-10.07914M20.05936,11.94005c-.1203,1.23735-.4027,2.45353-.83993,3.61729l-1.1199,3.72928-4.05406-12.00538,1.27669-.13439c.25413-.05386.41648-.30353.36262-.55766-.04372-.20629-.21939-.35827-.42981-.37186,0,0-1.81425.14559-2.99015.14559l-2.94535-.14559c-.2595.01183-.46028.23178-.44846.49129.00971.21309.16161.39297.37006.43823l1.1871.13439,1.74705,4.7484-2.45259,7.34658L5.63498,7.28124l1.26549-.13439c.25668-.03996.43236-.28044.3924-.53712-.03149-.20225-.19015-.36091-.3924-.3924,0,0-1.81425.14559-2.99015.14559h-.77273C6.528,1.1899,13.47003-.25521,18.64305,3.1352c.50075.32819.97437.696,1.41631,1.09991h-.14559c-1.06573.03052-1.90653.91636-1.88144,1.98223.12436.9635.51185,1.8741,1.1199,2.63178.59884.92032.92141,1.99297.92952,3.09094M12.71278,13.47432l3.44931,9.4296.07839.15679c-2.21554.78491-4.6228.84764-6.87622.17918l3.35971-9.76557M22.33277,7.12446c2.90436,5.33496,1.02626,12.01265-4.23324,15.05152l3.42691-9.88876c.54523-1.26376.83816-2.62191.86233-3.99806l-.07839-1.1199" fill="#252525"/>
</svg>